# Blender 4.4.0
# www.blender.org
mtllib Goal.mtl
o Cube
v -0.603647 0.458116 -0.057695
v -0.603647 -0.458116 -0.057695
v -0.603647 0.458116 0.057695
v -0.603647 -0.458116 0.057695
v -0.488258 0.458116 -0.057695
v -0.488258 -0.458116 -0.057695
v -0.488258 0.458116 0.057695
v -0.488258 -0.458116 0.057695
v 0.603647 0.458116 -0.057695
v 0.603647 -0.458116 -0.057695
v 0.603647 0.458116 0.057695
v 0.603647 -0.458116 0.057695
v 0.488258 0.458116 -0.057695
v 0.488258 -0.458116 -0.057695
v 0.488258 0.458116 0.057695
v 0.488258 -0.458116 0.057695
v -0.488258 -0.458116 0.000000
v -0.603647 0.458116 0.000000
v -0.488258 0.458116 0.000000
v -0.603647 -0.458116 0.000000
v 0.488258 -0.458116 0.000000
v 0.603647 0.458116 0.000000
v 0.488258 0.458116 0.000000
v 0.603647 -0.458116 0.000000
v 0.603647 0.006109 -0.057695
v 0.488258 0.006109 0.057695
v 0.603647 0.006109 0.057695
v 0.488258 0.006109 -0.057695
v 0.603647 0.006109 0.000000
v 0.488258 0.006109 0.000000
v -0.603647 0.000000 -0.057695
v -0.488258 0.000000 0.057695
v -0.603647 0.000000 0.057695
v -0.488258 0.000000 -0.057695
v -0.603647 0.000000 0.000000
v -0.488258 0.000000 0.000000
v -0.603647 0.879179 0.057695
v -0.488258 0.879179 0.057695
v -0.603647 0.879179 0.000000
v -0.488258 0.879179 0.000000
v -0.488258 0.879179 -0.057695
v -0.603647 0.879179 -0.057695
v 0.603647 0.879179 0.057695
v 0.488258 0.879179 0.057695
v 0.603647 0.879179 0.000000
v 0.488258 0.879179 0.000000
v 0.488258 0.879179 -0.057695
v 0.603647 0.879179 -0.057695
v -0.503462 0.432693 0.029663
v -0.503462 0.815771 0.029663
v -0.503462 0.432693 -0.029663
v -0.503462 0.815771 -0.029663
v 0.503462 0.432693 0.029663
v 0.503462 0.815771 0.029663
v 0.503462 0.432693 -0.029663
v 0.503462 0.815771 -0.029663
vn 1.0000 -0.0000 -0.0000
vn -0.0000 -0.0000 1.0000
vn -0.0000 -1.0000 -0.0000
vn -1.0000 -0.0000 -0.0000
vn -0.0000 -0.0000 -1.0000
vn -0.0000 1.0000 -0.0000
vt 0.347428 0.292100
vt 0.347428 0.198594
vt 0.294517 0.666125
vt 0.347428 0.666125
vt 0.347428 0.853138
vt 0.294517 0.853138
vt 0.294517 0.198594
vt 0.294517 0.292100
vt 0.135784 0.572619
vt 0.241606 0.572619
vt 0.241606 0.666125
vt 0.135784 0.666125
vt 0.294517 0.572619
vt 0.347428 0.572619
vt 0.347428 0.479113
vt 0.294517 0.479113
vt 0.347428 0.105088
vt 0.295223 0.666125
vt 0.295223 0.853138
vt 0.295223 0.198594
vt 0.295223 0.292100
vt 0.295223 0.572619
vt 0.295223 0.479113
vt 0.135784 0.479113
vt 0.241606 0.479113
vt 0.294517 0.105088
vt 0.295223 0.105088
vt 0.241606 0.105088
vt 0.241606 0.198594
vt 0.241606 0.292100
vt 0.241606 0.853138
vt 0.453250 0.572619
vt 0.453250 0.666125
vt 0.453250 0.479113
vt 0.548729 0.364726
vt 0.589425 0.364726
vt 0.589425 0.436647
vt 0.548729 0.436647
vt 0.589425 0.508566
vt 0.548729 0.508566
vt 0.589425 0.580487
vt 0.548729 0.580487
vt 0.589425 0.652407
vt 0.548729 0.652407
vt 0.508032 0.508566
vt 0.508032 0.580487
vt 0.630121 0.508566
vt 0.630121 0.580487
s 0
usemtl マテリアル
f 5/1/1 41/1/1 40/2/1 19/2/1
f 33/3/2 32/6/2 7/5/2 3/4/2
f 36/7/1 34/8/1 5/1/1 19/2/1
f 17/9/3 8/12/3 4/11/3 20/10/3
f 35/13/4 33/3/4 3/4/4 18/14/4
f 34/8/5 31/16/5 1/15/5 5/1/5
f 19/2/1 40/2/1 38/17/1 7/17/1
f 27/18/5 26/19/5 15/5/5 11/4/5
f 30/20/1 28/21/1 13/1/1 23/2/1
f 21/9/6 16/12/6 12/11/6 24/10/6
f 29/22/4 27/18/4 11/4/4 22/14/4
f 28/21/2 25/23/2 9/15/2 13/1/2
f 31/16/4 35/13/4 18/14/4 1/15/4
f 6/24/3 17/9/3 20/10/3 2/25/3
f 32/26/1 36/7/1 19/2/1 7/17/1
f 11/4/4 43/4/4 45/14/4 22/14/4
f 25/23/4 29/22/4 22/14/4 9/15/4
f 14/24/6 21/9/6 24/10/6 10/25/6
f 26/27/1 30/20/1 23/2/1 15/17/1
f 9/15/2 48/15/2 47/1/2 13/1/2
f 16/28/1 21/29/1 30/20/1 26/27/1
f 10/25/4 24/10/4 29/22/4 25/23/4
f 14/30/2 10/25/2 25/23/2 28/21/2
f 24/10/4 12/11/4 27/18/4 29/22/4
f 21/29/1 14/30/1 28/21/1 30/20/1
f 12/11/5 16/31/5 26/19/5 27/18/5
f 8/28/1 17/29/1 36/7/1 32/26/1
f 2/25/4 20/10/4 35/13/4 31/16/4
f 6/30/5 2/25/5 31/16/5 34/8/5
f 20/10/4 4/11/4 33/3/4 35/13/4
f 17/29/1 6/30/1 34/8/1 36/7/1
f 4/11/2 8/31/2 32/6/2 33/3/2
f 39/14/6 37/4/6 38/33/6 40/32/6
f 45/14/3 43/4/3 44/33/3 46/32/3
f 42/15/6 39/14/6 40/32/6 41/34/6
f 48/15/3 45/14/3 46/32/3 47/34/3
f 22/14/4 45/14/4 48/15/4 9/15/4
f 7/5/2 38/5/2 37/4/2 3/4/2
f 1/15/5 42/15/5 41/1/5 5/1/5
f 23/2/1 46/2/1 44/17/1 15/17/1
f 3/4/4 37/4/4 39/14/4 18/14/4
f 13/1/1 47/1/1 46/2/1 23/2/1
f 15/5/5 44/5/5 43/4/5 11/4/5
f 18/14/4 39/14/4 42/15/4 1/15/4
f 49/35/1 51/38/1 52/37/1 50/36/1
f 51/38/2 55/40/2 56/39/2 52/37/2
f 55/40/4 53/42/4 54/41/4 56/39/4
f 53/42/5 49/44/5 50/43/5 54/41/5
f 51/45/6 49/46/6 53/42/6 55/40/6
f 56/39/3 54/41/3 50/48/3 52/47/3
