# Blender 4.4.0
# www.blender.org
mtllib Credit.mtl
o Cube
v -10.214828 -10.540427 1.000001
v -10.214828 -10.540427 -0.999999
v 16.051874 -10.540427 0.999999
v 16.051874 -16.906010 0.999999
v 16.051874 -16.906010 -1.000001
v -10.214828 -10.540427 1.000001
v -10.214828 -10.540427 -0.999999
v 16.051874 -10.540427 0.999999
v -10.214828 -10.540427 1.000001
v -10.214828 -16.906010 1.000001
v -10.214828 -16.906010 1.000001
v 16.051874 -16.906010 0.999999
v -10.214828 -10.540427 -0.999999
v 16.051874 -10.540427 -1.000001
v -10.214828 -16.906010 -0.999999
v -10.214828 -16.906010 -0.999999
v 16.051874 -16.906010 -1.000001
v 16.051874 -10.540427 -1.000001
vn -0.0000 1.0000 -0.0000
vn -0.0000 -0.0000 -1.0000
vn 1.0000 -0.0000 -0.0000
vn -0.0000 -1.0000 -0.0000
vn -1.0000 -0.0000 -0.0000
vn -0.0000 -0.0000 1.0000
vt 0.340982 0.190588
vt 0.575060 0.190588
vt 0.575060 0.274399
vt 0.340982 0.274399
vt 0.987325 0.488953
vt 0.988170 0.828387
vt 0.032436 0.828387
vt 0.031592 0.488953
vt 0.622204 0.274399
vt 0.622204 0.190588
vt 0.856282 0.190588
vt 0.856282 0.274399
vt 0.903426 0.190588
vt 0.903426 0.274399
vt 0.289715 0.198549
vt 0.289715 0.282361
vt 0.055637 0.282361
vt 0.055637 0.198549
s 0
usemtl Material
f 9/1/1 8/2/1 18/3/1 13/4/1
f 15/5/2 7/6/2 14/7/2 17/8/2
f 5/9/3 18/3/3 8/2/3 12/10/3
f 12/10/4 10/11/4 16/12/4 5/9/4
f 10/11/5 6/13/5 2/14/5 16/12/5
f 4/15/6 3/16/6 1/17/6 11/18/6
